<?xml version="1.0" encoding="UTF-8"?>
<svg version="1.1" xmlns="http://www.w3.org/2000/svg" width="500" height="500">
<path d="M0 0 C165 0 330 0 500 0 C500 165 500 330 500 500 C335 500 170 500 0 500 C0 335 0 170 0 0 Z " fill="#000000" transform="translate(0,0)"/>
<path d="M0 0 C1.07435303 -0.00073013 2.14870605 -0.00146027 3.25561523 -0.00221252 C6.77299176 0.00124436 10.2890099 0.04001735 13.80615234 0.0793457 C16.2580798 0.08868053 18.71001664 0.09579348 21.16195679 0.1007843 C27.59008904 0.119801 34.01764917 0.16885675 40.44555664 0.2243042 C47.01489525 0.27561128 53.58432703 0.29832283 60.15380859 0.32348633 C73.0251526 0.37697994 85.89607349 0.46222869 98.76708984 0.56762695 C98.76708984 4.85762695 98.76708984 9.14762695 98.76708984 13.56762695 C64.44708984 13.56762695 30.12708984 13.56762695 -5.23291016 13.56762695 C-5.23291016 14.22762695 -5.23291016 14.88762695 -5.23291016 15.56762695 C-4.64869262 15.82611105 -4.06447508 16.08459515 -3.46255398 16.35091209 C-1.05314778 17.66572314 0.51634211 19.08398687 2.44139099 21.0350647 C3.15486694 21.75301712 3.8683429 22.47096954 4.60343933 23.2106781 C5.37601578 23.99830032 6.14859222 24.78592255 6.94458008 25.59741211 C7.76618622 26.42675766 8.58779236 27.25610321 9.43429565 28.11058044 C11.21792927 29.91187061 12.99935528 31.7153488 14.7788372 33.52074051 C17.59339793 36.37465146 20.41514874 39.22132447 23.23976135 42.0652771 C31.26943149 50.15249481 39.28896336 58.24967378 47.29370117 66.36157227 C51.71706479 70.84399158 56.14931673 75.31742254 60.59152752 79.78116643 C62.94110311 82.1429859 65.28413573 84.510774 67.61904716 86.88710403 C70.22149341 89.5350767 72.83886143 92.16738378 75.46020508 94.79663086 C76.23075729 95.58830154 77.00130951 96.37997223 77.79521179 97.19563293 C78.51150757 97.90794571 79.22780334 98.62025848 79.96580505 99.35415649 C80.89132754 100.29048888 80.89132754 100.29048888 81.83554745 101.24573708 C84.33121174 102.95369512 85.80051009 102.96569105 88.76708984 102.56762695 C91.28158661 100.62019388 91.28158661 100.62019388 93.51708984 98.06762695 C94.92387757 96.55835801 96.33798713 95.05578349 97.76708984 93.56762695 C98.09708984 93.56762695 98.42708984 93.56762695 98.76708984 93.56762695 C100.53002111 108.75732765 100.53002111 108.75732765 96.49365234 114.1809082 C93.85990365 117.09060368 91.16200643 119.56091512 87.76708984 121.56762695 C83.15293449 121.33872011 81.07663543 119.37023196 77.90380859 116.1652832 C77.01757812 115.27518555 76.13134766 114.38508789 75.21826172 113.46801758 C73.85024414 112.06326172 73.85024414 112.06326172 72.45458984 110.63012695 C71.52324219 109.69749023 70.59189453 108.76485352 69.63232422 107.80395508 C62.76708984 100.84819014 62.76708984 100.84819014 62.76708984 98.56762695 C56.06536839 104.20916913 49.87688688 110.3268879 43.70458984 116.5324707 C42.33077148 117.90779968 42.33077148 117.90779968 40.92919922 119.31091309 C37.53907309 122.70623449 34.15333432 126.10593426 30.76708984 129.50512695 C19.38208984 140.92106445 19.38208984 140.92106445 7.76708984 152.56762695 C37.79708984 152.89762695 67.82708984 153.22762695 98.76708984 153.56762695 C98.76708984 157.52762695 98.76708984 161.48762695 98.76708984 165.56762695 C84.33693544 165.70685301 69.90694172 165.81336363 55.4762516 165.87849998 C48.77493265 165.90936507 42.07410281 165.95215894 35.37304688 166.02026367 C28.90206775 166.085616 22.4315308 166.12136735 15.96024704 166.13689041 C13.49553851 166.14794802 11.03085327 166.16954116 8.56633377 166.20200729 C5.10489493 166.24577893 1.6452663 166.25155203 -1.81640625 166.2487793 C-2.82773621 166.27035095 -3.83906616 166.29192261 -4.88104248 166.31414795 C-12.28812941 166.25025138 -17.40387673 164.15562632 -23.23291016 159.56762695 C-27.94273331 154.5431601 -30.47829901 149.07040376 -30.49360657 142.19877625 C-30.50069138 141.13486664 -30.50777618 140.07095703 -30.51507568 138.97480774 C-30.51259827 137.81780869 -30.51012085 136.66080963 -30.50756836 135.46875 C-30.51267929 134.24216675 -30.51779022 133.0155835 -30.52305603 131.75183105 C-30.53456467 128.39417751 -30.537027 125.03677105 -30.53449273 121.67911506 C-30.53342116 118.87118816 -30.53831135 116.06328389 -30.54309815 113.25536186 C-30.55418658 106.62676691 -30.55463503 99.99822863 -30.54858398 93.36962891 C-30.54254912 86.54463588 -30.55484421 79.71984926 -30.57615405 72.89489144 C-30.59380514 67.02463716 -30.59976575 61.15444836 -30.59651631 55.28416854 C-30.59470829 51.78289636 -30.59729091 48.28177132 -30.61123085 44.7805233 C-30.62621089 40.87182996 -30.61680841 36.96339657 -30.60522461 33.0546875 C-30.61286835 31.90376114 -30.62051208 30.75283478 -30.62838745 29.56703186 C-30.57208015 20.95860322 -29.30907729 13.72564557 -23.15192223 7.29392529 C-16.32153427 1.14946819 -8.88982047 -0.16099355 0 0 Z " fill="#F9F9F9" transform="translate(64.23291015625,170.432373046875)"/>
<path d="M0 0 C8.32736531 4.61759692 14.37064301 10.22572862 18.90234375 18.609375 C19.31484375 19.310625 19.72734375 20.011875 20.15234375 20.734375 C24.66020909 29.75010568 24.39403846 41.56339115 22.01953125 51.1875 C17.47250498 62.93147513 9.57770301 71.6774478 -1.84765625 76.921875 C-11.89431307 81.20435282 -25.37074811 81.55600909 -35.59765625 77.734375 C-46.64283253 72.24272573 -55.10948564 63.03622292 -59.2265625 51.42578125 C-60.28449896 46.79078608 -60.46551036 42.47209738 -60.47265625 37.734375 C-60.49714844 36.88746094 -60.52164062 36.04054688 -60.546875 35.16796875 C-60.59552299 24.57892198 -55.36777821 15.37755244 -48.3203125 7.6640625 C-35.42880835 -4.5156408 -16.04084197 -7.20118505 0 0 Z " fill="#040404" transform="translate(340.09765625,256.390625)"/>
<path d="M0 0 C4.70745077 3.9317076 9.1641171 8.02257286 13.48608398 12.37255859 C14.09182755 12.97815613 14.69757111 13.58375366 15.32167053 14.20770264 C17.29886146 16.18558341 19.27249876 18.16696914 21.24609375 20.1484375 C22.62592516 21.53013639 24.0059793 22.91161288 25.38624573 24.2928772 C29.0002185 27.91064913 32.61117673 31.53141519 36.22149658 35.15283203 C39.91341203 38.85501777 43.60819663 42.55433771 47.30273438 46.25390625 C54.53795303 53.49981631 61.76998741 60.74889555 69 68 C65.23698903 72.47931843 61.36951742 76.79070795 57.25756836 80.95117188 C56.71852371 81.50000031 56.17947906 82.04882874 55.62409973 82.61428833 C53.86576544 84.4021813 52.10349405 86.18610134 50.33984375 87.96875 C49.73376345 88.58140213 49.12768314 89.19405426 48.50323677 89.82527161 C45.30435315 93.05654754 42.10154065 96.28387922 38.89624023 99.50878906 C36.24703855 102.17590901 33.60664587 104.85131805 30.97338867 107.53417969 C27.78309805 110.78446815 24.57850508 114.01996693 21.36294746 117.24525452 C20.14217568 118.4746 18.9265563 119.70908411 17.71623039 120.94871521 C16.02887034 122.6747656 14.32377699 124.38114863 12.61303711 126.08398438 C11.86867905 126.85834335 11.86867905 126.85834335 11.10928345 127.64834595 C8.79574521 129.91410893 7.57427614 130.98793833 4.27418518 131.05725098 C1.43572538 129.73767312 1.11056958 128.87911344 0 126 C-0.24609566 123.54001999 -0.24609566 123.54001999 -0.24050903 120.73553467 C-0.24325836 119.6698526 -0.24600769 118.60417053 -0.24884033 117.50619507 C-0.24164978 116.34238312 -0.23445923 115.17857117 -0.22705078 113.97949219 C-0.22734283 112.74995819 -0.22763489 111.52042419 -0.22793579 110.25363159 C-0.22678153 106.88611095 -0.21675396 103.5188358 -0.20278788 100.1513586 C-0.19028185 96.63063722 -0.18911012 93.10991253 -0.18673706 89.58917236 C-0.18052191 82.92398902 -0.16411063 76.25887131 -0.14403808 69.59371686 C-0.12168016 62.00490228 -0.11068592 54.41608456 -0.10064721 46.82724524 C-0.07974443 31.21812548 -0.04456778 15.60907121 0 0 Z " fill="#010101" transform="translate(48,192)"/>
<path d="M0 0 C5.61 0 11.22 0 17 0 C19.85620163 5.51215296 22.26876394 11.01959957 24.41796875 16.83984375 C24.72068192 17.64740616 25.02339508 18.45496857 25.33528137 19.28700256 C26.29016308 21.83564322 27.23930162 24.38636611 28.1875 26.9375 C29.14700579 29.51339478 30.10778817 32.08878723 31.07185364 34.66297913 C31.66896375 36.25782978 32.26335732 37.85370064 32.8547821 39.45066833 C33.97088738 42.99274064 33.97088738 42.99274064 36 46 C39.63 36.43 43.26 26.86 47 17 C52.94 17 58.88 17 65 17 C64.27941958 20.60290211 63.57644219 23.38858893 62.26928711 26.73242188 C61.73754128 28.10170837 61.73754128 28.10170837 61.1950531 29.49865723 C60.61703697 30.96885315 60.61703697 30.96885315 60.02734375 32.46875 C59.42533897 34.01483948 59.42533897 34.01483948 58.81117249 35.59216309 C57.52379123 38.89628965 56.23085827 42.19820905 54.9375 45.5 C53.25772452 49.80154142 51.58008557 54.10391506 49.90234375 58.40625 C49.49196869 59.45731934 49.08159363 60.50838867 48.65878296 61.59130859 C44.71405024 71.70537725 40.84588262 81.84799609 37 92 C34 91 34 91 32.95829773 89.08921814 C32.64552383 88.2514534 32.33274994 87.41368866 32.01049805 86.55053711 C31.46929573 85.12655861 31.46929573 85.12655861 30.91716003 83.67381287 C30.53586441 82.63547806 30.15456879 81.59714325 29.76171875 80.52734375 C29.35846878 79.45690323 28.95521881 78.38646271 28.53974915 77.28358459 C27.24490309 73.83881373 25.96603093 70.38835525 24.6875 66.9375 C23.83763549 64.66822742 22.98673572 62.39934228 22.13476562 60.13085938 C20.10865193 54.72931487 18.0945544 49.3233968 16.0848999 43.91571045 C14.52892383 39.73396457 12.96280707 35.55605199 11.39453125 31.37890625 C11.14555588 30.71543686 10.89658051 30.05196747 10.64006042 29.36839294 C10.09354558 27.91219741 9.54680508 26.45608657 9 25 C5.46843771 33.33922393 2.13419994 41.73772687 -1.08203125 50.203125 C-1.77059456 52.00882965 -1.77059456 52.00882965 -2.47306824 53.85101318 C-3.67638611 57.00668404 -4.87750746 60.16318621 -6.078125 63.31988525 C-7.3104863 66.5588282 -8.5449898 69.79695443 -9.77929688 73.03515625 C-12.18825901 79.35598684 -14.59489455 85.67770095 -17 92 C-20 91 -20 91 -21.02824402 89.12286377 C-21.3349855 88.30018005 -21.64172699 87.47749634 -21.95776367 86.62988281 C-22.48928291 85.230112 -22.48928291 85.230112 -23.03153992 83.80206299 C-23.40656143 82.77941345 -23.78158295 81.75676392 -24.16796875 80.703125 C-24.76572868 79.11525177 -24.76572868 79.11525177 -25.37556458 77.49530029 C-26.65698244 74.08412348 -27.92250341 70.66729621 -29.1875 67.25 C-30.02042422 65.0230407 -30.85439733 62.79647339 -31.68945312 60.5703125 C-33.33519187 56.17968244 -34.97505158 51.78692432 -36.61083984 47.39257812 C-39.22578407 40.37912608 -41.8888182 33.38437519 -44.56694031 26.39483643 C-45.02747551 25.19150665 -45.02747551 25.19150665 -45.49731445 23.96386719 C-45.76477982 23.26686707 -46.03224518 22.56986694 -46.30781555 21.85174561 C-46.90753041 20.24737649 -47.45836745 18.62489765 -48 17 C-42.06 17 -36.12 17 -30 17 C-27.14606233 23.24968248 -24.62773954 29.53347039 -22.3125 36 C-21.70695758 37.68840969 -21.09901658 39.37596175 -20.48828125 41.0625 C-20.09443237 42.16271484 -20.09443237 42.16271484 -19.69262695 43.28515625 C-19.12968629 45.00059047 -19.12968629 45.00059047 -18 46 C-17.78924332 45.45320587 -17.57848663 44.90641174 -17.36134338 44.3430481 C-15.17266727 38.66525136 -12.98261293 32.98798767 -10.79174805 27.31103516 C-9.97368384 25.19072972 -9.15597423 23.07028743 -8.33862305 20.94970703 C-7.16547785 17.90621694 -5.99106908 14.86321711 -4.81640625 11.8203125 C-4.44971329 10.86818878 -4.08302032 9.91606506 -3.70521545 8.93508911 C-3.3649382 8.05432709 -3.02466095 7.17356506 -2.67407227 6.26611328 C-2.3742897 5.48889923 -2.07450714 4.71168518 -1.76564026 3.91091919 C-1 2 -1 2 0 0 Z " fill="#FAFAFA" transform="translate(249,149)"/>
<path d="M0 0 C0.74461487 -0.00807175 1.48922974 -0.01614349 2.25640869 -0.02445984 C3.84360411 -0.03833161 5.43082976 -0.04903984 7.01806641 -0.05688477 C9.40198596 -0.07385472 11.7844275 -0.11767552 14.16796875 -0.16210938 C25.98725453 -0.28302298 37.64502078 0.70027773 47.1171875 8.59375 C53.16289342 14.86281944 54.0785841 21.81933877 53.9765625 30.1953125 C53.5027254 35.46844248 51.88991407 39.32308482 47.87890625 42.8359375 C46.20988946 44.05130672 44.46149305 45.15620861 42.703125 46.23828125 C43.23421875 46.59019531 43.7653125 46.94210938 44.3125 47.3046875 C48.93781373 50.5373429 53.15185564 53.58859656 54.703125 59.23828125 C55.81170448 67.77628812 55.61802261 75.05210541 50.53125 82.21875 C44.73552386 88.62129362 36.35244955 91.76702382 27.83203125 92.4777832 C24.90825263 92.53135646 22.00130314 92.50188535 19.078125 92.42578125 C18.07394531 92.41224609 17.06976563 92.39871094 16.03515625 92.38476562 C13.59090752 92.34984779 11.1469402 92.29605972 8.703125 92.23828125 C8.703125 86.62828125 8.703125 81.01828125 8.703125 75.23828125 C10.14945312 75.2125 11.59578125 75.18671875 13.0859375 75.16015625 C15.00002952 75.10385943 16.91409085 75.04651245 18.828125 74.98828125 C19.77945312 74.97410156 20.73078125 74.95992188 21.7109375 74.9453125 C27.62897965 74.73982493 31.18857083 74.17556456 35.703125 70.23828125 C37.14743355 67.34966416 37.08001006 65.44180424 36.703125 62.23828125 C33.96019492 58.80961865 31.99243168 57.02026344 27.703125 56.23828125 C24.94202655 56.08745741 22.20050571 55.98209417 19.4375 55.921875 C18.24740326 55.89070335 18.24740326 55.89070335 17.03326416 55.85890198 C14.50663656 55.79368152 11.97990779 55.73464981 9.453125 55.67578125 C7.73696884 55.63256985 6.02082278 55.58895472 4.3046875 55.54492188 C0.10426954 55.43802842 -4.09624989 55.33668396 -8.296875 55.23828125 C-8.32214105 47.56616923 -8.33970623 39.89406785 -8.35180664 32.22192383 C-8.35684877 29.60961506 -8.36368225 26.99730914 -8.37231445 24.38500977 C-8.38438536 20.63947857 -8.39010435 16.89398453 -8.39453125 13.1484375 C-8.39969254 11.9724147 -8.40485382 10.79639191 -8.41017151 9.58473206 C-8.41028481 7.96316444 -8.41028481 7.96316444 -8.41040039 6.30883789 C-8.412621 5.3517543 -8.41484161 4.39467072 -8.41712952 3.40858459 C-8.15335743 -1.35186403 -3.76507802 0.03864766 0 0 Z " fill="#F9F9F9" transform="translate(400.296875,148.76171875)"/>
<path d="M0 0 C1.12535156 0.00580078 1.12535156 0.00580078 2.2734375 0.01171875 C3.02367187 0.00785156 3.77390625 0.00398437 4.546875 0 C10.14682697 0.01010822 10.14682697 0.01010822 11.2734375 1.13671875 C11.38328877 3.11356428 11.42255764 5.09435985 11.43457031 7.07421875 C11.44417786 8.34644287 11.4537854 9.61866699 11.46368408 10.92944336 C11.46853478 12.33186667 11.47281294 13.73429206 11.4765625 15.13671875 C11.48231509 16.57104494 11.48807281 18.00537111 11.49383545 19.43969727 C11.50436171 22.45605834 11.51019211 25.47239266 11.51367188 28.48876953 C11.51912649 32.33417207 11.54308161 36.17921509 11.57164383 40.02450562 C11.59038063 42.99299097 11.59548188 45.96139218 11.59700775 48.92993164 C11.6000156 50.34596702 11.60798028 51.76200159 11.62119293 53.17797852 C11.72221775 64.84849011 10.73831743 73.99873994 2.66015625 82.91796875 C-4.78200278 90.19063761 -13.5418435 92.49416135 -23.7890625 92.63671875 C-34.97669939 92.45469872 -42.56260506 89.27478734 -50.625 81.51953125 C-55.31419491 76.20278609 -57.85762872 70.21853856 -57.84008789 63.11450195 C-57.84001236 62.0936702 -57.83993683 61.07283844 -57.83985901 60.02107239 C-57.83469772 58.9209935 -57.82953644 57.82091461 -57.82421875 56.6875 C-57.8228038 55.55974655 -57.82138885 54.4319931 -57.81993103 53.27006531 C-57.8143272 49.66308963 -57.80177403 46.05617571 -57.7890625 42.44921875 C-57.78404799 40.00586027 -57.779485 37.56250082 -57.77539062 35.11914062 C-57.76435653 29.12497616 -57.74708929 23.13085793 -57.7265625 17.13671875 C-52.1165625 17.13671875 -46.5065625 17.13671875 -40.7265625 17.13671875 C-40.71197998 18.46324463 -40.69739746 19.78977051 -40.68237305 21.15649414 C-40.62422128 26.09735515 -40.54698916 31.03776847 -40.46411133 35.97827148 C-40.43094133 38.11296297 -40.40288492 40.24774048 -40.38012695 42.38256836 C-40.34643533 45.45854206 -40.29411147 48.53373301 -40.23828125 51.609375 C-40.23189133 52.55756607 -40.2255014 53.50575714 -40.21891785 54.48268127 C-40.06973908 61.26858847 -39.35868487 66.5720867 -34.2890625 71.51171875 C-29.1789287 74.7522914 -23.62915997 74.65039416 -17.7265625 74.13671875 C-12.95360093 72.45734338 -10.52237325 70.3162722 -7.7265625 66.13671875 C-7.12192543 63.02380185 -7.12192543 63.02380185 -7.1965332 59.61816406 C-7.18004227 58.32042053 -7.16355133 57.022677 -7.14656067 55.68560791 C-7.14821475 54.27868618 -7.15014902 52.87176475 -7.15234375 51.46484375 C-7.1398946 50.01705232 -7.12555925 48.569276 -7.10942078 47.121521 C-7.07145735 43.32103334 -7.05621611 39.52080619 -7.04663086 35.72015381 C-7.0268547 29.62287774 -6.97016446 23.52579952 -6.91786766 17.42873383 C-6.90248188 15.29648612 -6.89532455 13.16433697 -6.88972473 11.03204346 C-6.88269028 9.74690857 -6.87565582 8.46177368 -6.8684082 7.13769531 C-6.86492874 6.00027893 -6.86144928 4.86286255 -6.85786438 3.690979 C-6.61368242 -1.05917596 -4.18324086 0.00755098 0 0 Z " fill="#F9F9F9" transform="translate(377.7265625,148.86328125)"/>
<path d="M0 0 C41.35015139 -0.45944613 41.35015139 -0.45944613 55.0234375 12.6171875 C62.42681012 21.54220192 64.17927581 30.63582329 64.1875 41.8125 C64.19974609 42.67681641 64.21199219 43.54113281 64.22460938 44.43164062 C64.2496775 55.50339363 61.23784665 65.14990068 53.67578125 73.40625 C42.40686808 84.12353805 26.30704801 85.17537405 11.5625 85.0625 C7.746875 85.041875 3.93125 85.02125 0 85 C0 73.78 0 62.56 0 51 C5.28 51 10.56 51 16 51 C16 56.94 16 62.88 16 69 C30.24655885 68.25756162 30.24655885 68.25756162 41.76953125 60.94921875 C47.47759675 52.99535698 47.80490858 44.58991084 47 35 C45.32992617 28.21909781 41.76244001 23.82114892 36 20 C29.62181884 16.30065493 23.29836475 16.37620437 16 16 C16 21.94 16 27.88 16 34 C10.72 34 5.44 34 0 34 C0 22.78 0 11.56 0 0 Z " fill="#FBFBFB" transform="translate(212,251)"/>
<path d="M0 0 C4.29 0 8.58 0 13 0 C13 63.36 13 126.72 13 192 C8.71 192 4.42 192 0 192 C0 128.64 0 65.28 0 0 Z " fill="#F6F4F0" transform="translate(174,154)"/>
<path d="M0 0 C0.87914062 0.03609375 1.75828125 0.0721875 2.6640625 0.109375 C4.8196045 0.20309422 6.97288304 0.34658176 9.125 0.5 C8.51596119 3.64156368 7.50443189 5.66734764 5.60546875 8.23046875 C4.82200073 9.29950439 4.82200073 9.29950439 4.02270508 10.39013672 C3.4583374 11.1482666 2.89396973 11.90639648 2.3125 12.6875 C1.13204573 14.29761521 -0.04762205 15.90830728 -1.2265625 17.51953125 C-1.83016602 18.34146973 -2.43376953 19.1634082 -3.05566406 20.01025391 C-5.92714362 23.9398498 -8.74997912 27.90307959 -11.5625 31.875 C-12.3191394 32.93497192 -12.3191394 32.93497192 -13.09106445 34.01635742 C-13.55988037 34.67869385 -14.02869629 35.34103027 -14.51171875 36.0234375 C-14.92123779 36.60013184 -15.33075684 37.17682617 -15.75268555 37.77099609 C-16.95227619 39.61904937 -17.92531962 41.51358747 -18.875 43.5 C-16.7949736 46.564758 -14.71039368 49.62639214 -12.625 52.6875 C-12.03847656 53.55181641 -11.45195312 54.41613281 -10.84765625 55.30664062 C-8.46970255 58.79341543 -6.11195012 62.20763412 -3.453125 65.48828125 C-1.875 67.5 -1.875 67.5 -1.875 69.5 C-18.71844676 71.02813529 -18.71844676 71.02813529 -23.91796875 67.34375 C-28.875 61.05942623 -28.875 61.05942623 -28.875 57.5 C-29.535 57.5 -30.195 57.5 -30.875 57.5 C-31.28032959 58.35476929 -31.28032959 58.35476929 -31.69384766 59.22680664 C-32.91235218 61.57188634 -34.28107844 63.69069901 -35.7734375 65.87109375 C-36.33546875 66.69287109 -36.8975 67.51464844 -37.4765625 68.36132812 C-38.06179688 69.21146484 -38.64703125 70.06160156 -39.25 70.9375 C-39.8275 71.78376953 -40.405 72.63003906 -41 73.50195312 C-42.11953897 75.13397512 -43.25128871 76.75770407 -44.39648438 78.37182617 C-45.99586501 80.61581771 -45.99586501 80.61581771 -47.6796875 83.578125 C-51.24949177 86.70329173 -55.06359988 86.03147416 -59.625 85.8125 C-60.51316406 85.78994141 -61.40132813 85.76738281 -62.31640625 85.74414062 C-64.50432812 85.68532552 -66.68879671 85.60321268 -68.875 85.5 C-67.27111601 80.65083029 -64.5212585 76.90778848 -61.5625 72.8125 C-60.77975708 71.71494385 -60.77975708 71.71494385 -59.98120117 70.59521484 C-57.08547197 66.54317057 -54.159504 62.51344202 -51.2265625 58.48828125 C-50.63528564 57.67512451 -50.04400879 56.86196777 -49.43481445 56.02416992 C-48.28630458 54.44719542 -47.13390585 52.8730445 -45.97729492 51.30200195 C-45.45498291 50.58616943 -44.9326709 49.87033691 -44.39453125 49.1328125 C-43.93151611 48.50262207 -43.46850098 47.87243164 -42.99145508 47.22314453 C-41.69662787 45.38232301 -41.69662787 45.38232301 -40.875 42.5 C-41.77091885 40.61658258 -41.77091885 40.61658258 -43.2265625 38.734375 C-43.74863281 38.00863281 -44.27070313 37.28289062 -44.80859375 36.53515625 C-45.36675781 35.78105469 -45.92492187 35.02695312 -46.5 34.25 C-47.30244141 33.14205078 -47.30244141 33.14205078 -48.12109375 32.01171875 C-50.19509186 29.15050968 -52.28110684 26.29874992 -54.38964844 23.46289062 C-57.875 18.71572865 -57.875 18.71572865 -57.875 16.5 C-44.57056168 15.17223851 -44.57056168 15.17223851 -38.875 16.5 C-35.02950442 19.66836495 -33.17975888 23.15831355 -30.875 27.5 C-30.215 27.5 -29.555 27.5 -28.875 27.5 C-27.45637793 25.82323953 -27.45637793 25.82323953 -26.046875 23.625 C-25.49386719 22.80386719 -24.94085938 21.98273438 -24.37109375 21.13671875 C-23.50677734 19.83154297 -23.50677734 19.83154297 -22.625 18.5 C-20.93501572 15.97085111 -19.24060547 13.4465683 -17.51806641 10.93945312 C-16.45346002 9.35883693 -15.43128402 7.74845893 -14.46240234 6.10742188 C-10.51839131 -0.12884671 -7.13105383 -0.55845602 0 0 Z " fill="#F9F9F9" transform="translate(434.875,250.5)"/>
<path d="M0 0 C8.32736531 4.61759692 14.37064301 10.22572862 18.90234375 18.609375 C19.31484375 19.310625 19.72734375 20.011875 20.15234375 20.734375 C24.66020909 29.75010568 24.39403846 41.56339115 22.01953125 51.1875 C17.47250498 62.93147513 9.57770301 71.6774478 -1.84765625 76.921875 C-11.89431307 81.20435282 -25.37074811 81.55600909 -35.59765625 77.734375 C-46.64283253 72.24272573 -55.10948564 63.03622292 -59.2265625 51.42578125 C-60.28449896 46.79078608 -60.46551036 42.47209738 -60.47265625 37.734375 C-60.49714844 36.88746094 -60.52164062 36.04054688 -60.546875 35.16796875 C-60.59552299 24.57892198 -55.36777821 15.37755244 -48.3203125 7.6640625 C-35.42880835 -4.5156408 -16.04084197 -7.20118505 0 0 Z M-45.09765625 19.609375 C-50.77140664 27.55262554 -50.87253187 36.16373932 -50.09765625 45.609375 C-48.1115596 54.49329235 -42.69880871 61.34723804 -35.28515625 66.484375 C-27.43005264 70.95574167 -18.83139645 71.33870533 -10.09765625 69.609375 C-1.19442241 66.93333178 4.53197711 63.04216791 9.54296875 55.1640625 C13.6566062 47.43326109 15.7329534 37.81483143 13.2109375 29.265625 C9.43877399 20.04828823 3.76984847 13.2500358 -5.09765625 8.609375 C-20.53324505 2.33597229 -34.70019768 7.33285765 -45.09765625 19.609375 Z " fill="#F9F9F9" transform="translate(340.09765625,256.390625)"/>
<path d="M0 0 C1.6696582 0.57234375 1.6696582 0.57234375 3.37304688 1.15625 C6.10629238 2.09470339 8.83576568 3.04282684 11.5625 4 C8.00785357 8.05061036 3.42037306 9.08217885 -1.5625 10.75 C-2.47515625 11.07871094 -3.3878125 11.40742188 -4.328125 11.74609375 C-13.32203353 14.78249877 -19.98189967 14.13784697 -28.4375 10 C-25.12579912 6.97627311 -21.57934128 5.96744011 -17.36328125 4.74609375 C-15.2439259 4.17323701 -15.2439259 4.17323701 -14.4375 2 C-16.6692045 2.76403415 -18.89765714 3.53593391 -21.125 4.3125 C-22.36636719 4.74175781 -23.60773438 5.17101562 -24.88671875 5.61328125 C-28.05264214 6.84969797 -30.74626593 7.92667735 -33.4375 10 C-34.0045332 11.93499799 -34.0045332 11.93499799 -33.6875 14.0625 C-33.49927981 17.54742532 -33.46952546 20.89201619 -33.75 24.375 C-33.80800781 25.18710937 -33.86601562 25.99921875 -33.92578125 26.8359375 C-34.53894436 29.42900895 -35.30021691 30.43300158 -37.4375 32 C-40.125 31.6875 -40.125 31.6875 -42.4375 31 C-40.4375 27 -40.4375 27 -39.3125 25.25 C-38.23762516 22.48603613 -38.47290333 20.09796628 -38.56640625 17.171875 C-38.34566463 13.45271312 -36.89607426 10.40333995 -35.4375 7 C-38.4075 6.505 -38.4075 6.505 -41.4375 6 C-40.4375 3 -40.4375 3 -38.50732422 2.0168457 C-37.6773291 1.73929443 -36.84733398 1.46174316 -35.9921875 1.17578125 C-35.07953125 0.86962891 -34.166875 0.56347656 -33.2265625 0.24804688 C-32.26492188 -0.06068359 -31.30328125 -0.36941406 -30.3125 -0.6875 C-29.3740625 -1.00783203 -28.435625 -1.32816406 -27.46875 -1.65820312 C-17.00119938 -5.09607514 -10.23227349 -3.594959 0 0 Z " fill="#F5F5F5" transform="translate(340.4375,281)"/>
<path d="M0 0 C2.990625 -0.0825 5.98125 -0.165 9.0625 -0.25 C9.99070557 -0.28641602 10.91891113 -0.32283203 11.87524414 -0.36035156 C17.77734157 -0.4385501 21.18243562 0.54517295 26 4 C27.72784719 7.45569439 27.48497711 11.22121999 27 15 C24.59037385 18.4805711 21.98288337 19.76594172 18 21 C14.88985076 21.23639313 11.80421521 21.18846316 8.6875 21.125 C5.820625 21.08375 2.95375 21.0425 0 21 C0 14.07 0 7.14 0 0 Z " fill="#090909" transform="translate(409,166)"/>
<path d="M0 0 C0.71285156 0.20496094 1.42570312 0.40992188 2.16015625 0.62109375 C5.09865683 1.44767063 8.04687072 2.22751932 11 3 C12.134375 3.309375 13.26875 3.61875 14.4375 3.9375 C19.17461114 4.02060721 22.92178051 2.55973953 27.328125 0.91015625 C30 0 30 0 33 0 C33.62316911 8.25699068 33.62316911 8.25699068 31.375 10.9375 C23.10128721 14.63889783 14.10962105 15.54286309 5.3125 12.9375 C2 11 2 11 0.5 7.5625 C0 4 0 4 0 0 Z " fill="#F5F5F5" transform="translate(309,293)"/>
<path d="M0 0 C-0.33 0.99 -0.66 1.98 -1 3 C-3.50390625 4.16796875 -3.50390625 4.16796875 -6.5625 5.1875 C-7.57441406 5.53167969 -8.58632813 5.87585938 -9.62890625 6.23046875 C-10.41136719 6.48441406 -11.19382812 6.73835938 -12 7 C-6.83049416 10.44633723 -3.51636551 11.32265988 2.5859375 10.49609375 C5.86998011 9.82121768 8.93572471 8.74195701 12.0546875 7.5234375 C14 7 14 7 17 8 C17 11.3 17 14.6 17 18 C16.67 18 16.34 18 16 18 C16 15.36 16 12.72 16 10 C14.49759766 10.55880859 14.49759766 10.55880859 12.96484375 11.12890625 C11.62268369 11.60757872 10.28021916 12.08539809 8.9375 12.5625 C8.28072266 12.80935547 7.62394531 13.05621094 6.94726562 13.31054688 C0.10409661 15.70397052 -5.23143656 14.50401811 -11.9375 11.9375 C-12.89527344 11.57527344 -13.85304688 11.21304687 -14.83984375 10.83984375 C-15.55269531 10.56269531 -16.26554687 10.28554688 -17 10 C-17.33 10.99 -17.66 11.98 -18 13 C-18.66 11.35 -19.32 9.7 -20 8 C-13.74437285 3.79076152 -7.75288137 0 0 0 Z " fill="#191919" transform="translate(326,283)"/>
<path d="M0 0 C0.33 0.66 0.66 1.32 1 2 C1.66 2 2.32 2 3 2 C4.25632792 7.30449566 4.27832363 12.69495695 3 18 C1.62109375 19.8203125 1.62109375 19.8203125 0 21 C-2.6875 20.6875 -2.6875 20.6875 -5 20 C-3 16 -3 16 -1.875 14.25 C-0.75748039 11.37637814 -0.91065464 8.95927437 -0.99609375 5.90625 C-1.00040372 3.80298492 -0.6648807 1.99464211 0 0 Z " fill="#EEEEEE" transform="translate(303,292)"/>
<path d="M0 0 C0 3.3 0 6.6 0 10 C-0.33 10 -0.66 10 -1 10 C-1 7.36 -1 4.72 -1 2 C-2.03640625 2.37253906 -3.0728125 2.74507813 -4.140625 3.12890625 C-5.51022242 3.60732727 -6.88002502 4.08516121 -8.25 4.5625 C-8.93191406 4.80935547 -9.61382812 5.05621094 -10.31640625 5.31054688 C-16.58342161 7.47053761 -16.58342161 7.47053761 -20 6 C-19.34 6 -18.68 6 -18 6 C-18 5.34 -18 4.68 -18 4 C-15.56592995 3.13475247 -13.12856816 2.28257135 -10.6875 1.4375 C-9.99720703 1.19064453 -9.30691406 0.94378906 -8.59570312 0.68945312 C-3.33984375 -1.11328125 -3.33984375 -1.11328125 0 0 Z " fill="#242424" transform="translate(343,291)"/>
<path d="M0 0 C-0.33 0.99 -0.66 1.98 -1 3 C-3.36695387 4.03865096 -5.61555495 4.89577096 -8.0625 5.6875 C-8.72572266 5.91244141 -9.38894531 6.13738281 -10.07226562 6.36914062 C-11.71130207 6.92334719 -13.35522593 7.46306085 -15 8 C-14.80078125 6.140625 -14.80078125 6.140625 -14 4 C-11.85546875 2.734375 -11.85546875 2.734375 -9.1875 1.75 C-7.87845703 1.24726563 -7.87845703 1.24726563 -6.54296875 0.734375 C-4 0 -4 0 0 0 Z " fill="#181818" transform="translate(326,283)"/>
<path d="M0 0 C-0.33 0.99 -0.66 1.98 -1 3 C-2.65 3.33 -4.3 3.66 -6 4 C-6.33 3.01 -6.66 2.02 -7 1 C-4 0 -4 0 0 0 Z " fill="#282828" transform="translate(326,283)"/>
</svg>
